<svg xmlns="http://www.w3.org/2000/svg" width="1200" height="520" viewBox="0 0 1200 520"><defs><marker id="arrow" markerWidth="10" markerHeight="10" refX="9" refY="3" orient="auto"><path d="M0,0 L0,6 L9,3 z" fill="#334155"/></marker></defs><rect width="1200" height="520" fill="white"/><text x="600" y="42" text-anchor="middle" font-family="'Noto Sans CJK SC', 'PingFang SC', 'Microsoft YaHei', sans-serif" font-size="26" font-weight="bold">问题的已知输入、状态变量与输出目标</text><rect x="400" y="75" width="400" height="105" rx="12" fill="#EAF2F8" stroke="#334155" stroke-width="2"/><text x="600.0" y="114.5" text-anchor="middle" font-family="'Noto Sans CJK SC', 'PingFang SC', 'Microsoft YaHei', sans-serif" font-size="20"><tspan x="600.0" dy="0">已知输入</tspan><tspan x="600.0" dy="27">Ta(t)、χa(t)；R0、T0、X0；物性参数</tspan></text><rect x="400" y="245" width="400" height="105" rx="12" fill="#FDF2E9" stroke="#334155" stroke-width="2"/><text x="600.0" y="284.5" text-anchor="middle" font-family="'Noto Sans CJK SC', 'PingFang SC', 'Microsoft YaHei', sans-serif" font-size="20"><tspan x="600.0" dy="0">状态变量</tspan><tspan x="600.0" dy="27">温度 T(r,t) 与干基含水率 X(r,t)</tspan></text><rect x="70" y="405" width="410" height="85" rx="12" fill="#EAF7ED" stroke="#334155" stroke-width="2"/><text x="275.0" y="434.5" text-anchor="middle" font-family="'Noto Sans CJK SC', 'PingFang SC', 'Microsoft YaHei', sans-serif" font-size="20"><tspan x="275.0" dy="0">问题 1–3：固定半径 R0</tspan><tspan x="275.0" dy="27">采样场；烘干终止事件</tspan></text><rect x="720" y="405" width="410" height="85" rx="12" fill="#EAF7ED" stroke="#334155" stroke-width="2"/><text x="925.0" y="434.5" text-anchor="middle" font-family="'Noto Sans CJK SC', 'PingFang SC', 'Microsoft YaHei', sans-serif" font-size="20"><tspan x="925.0" dy="0">问题 4：实测 R(t)、材料坐标 ξ</tspan><tspan x="925.0" dy="27">移动域场；烘干终止事件</tspan></text><path d="M600 180 L600 245" fill="none" stroke="#334155" stroke-width="2.5" marker-end="url(#arrow)"/><text x="615" y="219" font-family="'Noto Sans CJK SC', 'PingFang SC', 'Microsoft YaHei', sans-serif" font-size="17">确定初值与边界数据</text><path d="M500 350 L290 405" fill="none" stroke="#334155" stroke-width="2.5" marker-end="url(#arrow)"/><path d="M700 350 L925 405" fill="none" stroke="#334155" stroke-width="2.5" marker-end="url(#arrow)"/><text x="220" y="378" font-family="'Noto Sans CJK SC', 'PingFang SC', 'Microsoft YaHei', sans-serif" font-size="17">固定域求解</text><text x="824" y="378" font-family="'Noto Sans CJK SC', 'PingFang SC', 'Microsoft YaHei', sans-serif" font-size="17">移动域求解</text></svg>